<svg width="82" height="81" viewBox="0 0 82 81" fill="none" xmlns="http://www.w3.org/2000/svg">
<rect x="1.10352" width="80.0024" height="80" rx="40" transform="rotate(0.0993931 1.10352 0)" fill="#0564BE"/>
<path d="M13.2218 26.5575C13.5799 26.242 13.9294 25.9266 14.3045 25.6283C14.7393 25.2787 15.2081 24.9548 15.6941 24.6735C16.1544 24.4007 16.6488 24.1534 17.1689 24C17.2257 24.017 17.274 24.0426 17.3138 24.0767C17.6122 24.5967 17.6718 25.202 17.7656 25.7817C17.8679 26.4211 17.9276 27.069 18.0128 27.7083C18.1066 28.3818 18.2174 29.0467 18.4135 29.6946C18.584 30.2743 18.8056 30.8796 19.1552 31.3911C19.3427 31.6639 19.5814 31.9452 19.8968 32.0986C19.9423 32.1214 19.9934 32.1413 20.0503 32.1583C21.5507 31.9026 23.051 32.6698 24.3298 33.3518C26.0006 34.2384 27.5351 35.2955 29.0355 36.4208C30.3995 37.4523 31.7805 38.4667 33.2894 39.3277C34.8154 40.2058 36.4521 40.9048 38.1742 41.3993C40.1349 41.979 42.1638 42.3541 44.2268 42.4223C46.2984 42.4905 48.3358 42.2092 50.3221 41.6721C52.2232 41.1521 54.0475 40.4445 55.8292 39.6602C57.2614 39.0294 58.6595 38.3303 60.0916 37.6995C60.4156 37.5716 60.7481 37.4437 61.0805 37.3329C61.4045 37.2221 61.7455 37.1283 62.0779 37.0431C62.3848 36.9578 62.7003 36.8726 63.0157 36.8044C63.4078 36.7447 63.8085 36.685 64.2092 36.668C64.4138 36.6595 64.6184 36.6595 64.823 36.6595C65.0276 36.6595 65.2321 36.6509 65.4367 36.668C65.6413 36.685 65.8545 36.7191 66.0591 36.7447C66.0988 36.7561 66.1386 36.7674 66.1784 36.7788C66.5024 36.8726 66.8348 36.9663 67.1843 36.9493C67.4912 36.9322 67.7811 36.8129 68.088 36.7788C68.1732 36.7731 68.2585 36.776 68.3437 36.7873C68.4233 36.8271 68.5 36.8726 68.5739 36.9237C68.9319 37.1624 69.2559 37.4778 69.5457 37.7847C69.5514 37.7961 69.5571 37.8075 69.5628 37.8188C69.5798 37.8416 69.5969 37.8643 69.6139 37.887C69.6083 37.8757 69.6054 37.8671 69.6054 37.8615C69.7248 37.9979 69.8271 38.1428 69.9123 38.2962C69.9635 38.4071 69.9976 38.5179 69.9976 38.6372C69.9862 38.677 69.9663 38.7196 69.9379 38.7651C69.8612 38.893 69.7844 39.0123 69.7333 39.1487C69.6395 39.2681 69.5543 39.3874 69.4861 39.5068C69.2985 39.8222 69.1877 40.1717 69.0598 40.5042C68.9064 40.8736 68.7529 41.243 68.5995 41.6124C68.0539 42.9423 67.4316 44.2381 66.6984 45.4827C65.4282 47.6395 63.9023 49.6173 61.933 51.2626C60.0746 52.8141 57.9178 54.0332 55.6076 54.9112C53.0671 55.8745 50.3307 56.3946 47.6112 56.7014C44.5934 57.051 41.5245 57.0936 38.4896 56.8293C35.6593 56.5821 32.795 56.1047 30.1096 55.2096C27.5692 54.3571 25.1908 53.0869 23.1278 51.4586C21.312 50.035 19.803 48.313 18.4391 46.5057C17.0836 44.6984 15.856 42.7377 15.2081 40.615C14.6114 38.6713 14.5517 36.5657 15.6259 34.7584C15.7793 34.5083 15.947 34.2696 16.1288 34.0423C16.3334 33.3859 16.197 32.6783 16.001 32.0304C15.7623 31.2462 15.4127 30.4789 15.0376 29.7458C14.816 29.311 14.5602 28.8933 14.2619 28.5097C13.955 28.1175 13.5714 27.8021 13.2559 27.427C13.1366 27.2821 13.0002 27.1116 13.0002 26.924C13.0002 26.7706 13.111 26.6598 13.2218 26.5575Z" fill="#3CA9FF"/>
<path d="M69.699 38.7992C69.7104 38.7708 69.7189 38.7453 69.7246 38.7225C69.7076 38.7225 69.6877 38.7225 69.6649 38.7225C69.682 38.7453 69.6934 38.7708 69.699 38.7992Z" fill="#1F6EAC"/>
<path d="M13.2135 26.9752C13.2192 26.9752 13.2248 26.9752 13.2305 26.9752C13.2305 26.9809 13.2305 26.9866 13.2305 26.9923C13.2646 26.9923 13.3016 26.9894 13.3413 26.9837C13.3413 26.9837 13.3442 26.9837 13.3499 26.9837C13.563 27.0008 13.7676 27.0008 13.9807 27.0178C13.742 27.0775 13.4948 27.1201 13.2561 27.1116C13.3158 27.2651 13.4863 27.4185 13.58 27.5208C13.904 27.8618 14.2365 28.1772 14.5178 28.5608C14.7991 28.9359 15.0463 29.3366 15.268 29.7458C15.6431 30.4619 15.9841 31.2206 16.2142 31.9878C16.3762 32.4908 16.5296 33.1046 16.4529 33.6672C16.5211 33.5934 16.5893 33.5195 16.6575 33.4456C16.6916 33.4115 16.7257 33.4115 16.7683 33.4115C16.5353 33.7923 16.3165 34.1816 16.1119 34.5794C15.7368 35.125 15.447 35.7217 15.2765 36.3611C15.0122 37.3329 15.0037 38.3559 15.1742 39.3448C15.5322 41.4931 16.6234 43.505 17.8681 45.3293C19.0786 47.1195 20.4937 48.8671 22.122 50.3504C24.023 52.0895 26.2736 53.4876 28.7117 54.485C31.2777 55.5336 34.0483 56.1047 36.8103 56.4543C39.7514 56.8123 42.7437 56.8805 45.7103 56.6674C48.5065 56.4628 51.3453 56.0365 54.0221 55.2096C56.3579 54.485 58.5658 53.4279 60.518 52.0298C62.5043 50.6147 64.1837 48.8586 65.5051 46.8808C66.2979 45.6873 67.0225 44.4427 67.6363 43.1554C67.9517 42.4905 68.2331 41.817 68.5059 41.1436C68.7531 40.5383 68.9491 39.8648 69.3072 39.3022C69.3072 39.2965 69.31 39.2908 69.3157 39.2851C69.2987 39.2681 69.2816 39.234 69.2901 39.2169C69.3072 39.1573 69.3157 39.1061 69.3413 39.0464C69.3527 39.0123 69.364 38.9754 69.3754 38.9356C69.401 38.8845 69.4095 38.8333 69.3924 38.7822C69.3669 38.7225 69.3072 38.6713 69.2646 38.6202C69.2248 38.5804 69.1822 38.5435 69.1367 38.5094C69.0287 38.4355 68.9236 38.3559 68.8213 38.2707C68.6678 38.1258 68.5229 37.9723 68.395 37.8103C68.2586 37.6654 68.1222 37.512 68.0285 37.3329C67.9858 37.2733 68.0796 37.2392 68.1308 37.2903C68.3268 37.4693 68.5144 37.6569 68.7275 37.8359C68.915 37.9979 69.1196 38.1684 69.3072 38.3389C69.3356 38.3559 69.3669 38.373 69.401 38.39C69.5033 38.4412 69.6311 38.4923 69.7505 38.4923C69.7505 38.481 69.7505 38.4724 69.7505 38.4668C69.6397 38.3133 69.5288 38.1684 69.418 38.0149C69.239 37.7507 69.0514 37.4864 68.8128 37.2647C68.6167 37.0772 68.4036 37.0005 68.1222 37.026C68.0654 37.0317 68.0057 37.0403 67.9432 37.0516C67.9489 37.063 67.9517 37.0772 67.9517 37.0942C67.9517 37.0999 67.9517 37.1085 67.9517 37.1198C67.9517 37.1454 67.9262 37.1539 67.9006 37.1539C67.8835 37.1596 67.8665 37.1568 67.8494 37.1454C67.8409 37.1454 67.8324 37.1454 67.8239 37.1454C67.8295 37.1454 67.8381 37.1482 67.8494 37.1539C67.8267 37.1482 67.8068 37.1397 67.7898 37.1283C67.7954 37.134 67.804 37.1369 67.8153 37.1369C67.7983 37.1369 67.7812 37.134 67.7642 37.1283C67.7528 37.1283 67.7415 37.1283 67.7301 37.1283C67.7244 37.1283 67.7216 37.1283 67.7216 37.1283H67.7301C67.7074 37.1283 67.6875 37.1312 67.6704 37.1369C67.6818 37.1312 67.6932 37.1283 67.7045 37.1283C67.6789 37.1369 67.6704 37.1369 67.6448 37.1369C67.6392 37.1369 67.6306 37.134 67.6193 37.1283C67.6136 37.1283 67.6079 37.1283 67.6022 37.1283C67.5965 37.1227 67.5909 37.1198 67.5852 37.1198C67.4743 37.1369 67.355 37.1539 67.2442 37.1539C66.9032 37.1624 66.5878 37.0772 66.2638 37.0005C65.8972 36.9067 65.5221 36.847 65.1385 36.83C64.3969 36.8044 63.6381 36.8982 62.9135 37.0346C62.2997 37.1539 61.703 37.3244 61.1233 37.529C59.5292 38.1769 58.0032 38.9697 56.4431 39.6688C54.7467 40.4189 53.0161 41.1265 51.2259 41.6636C49.3334 42.2347 47.3897 42.6098 45.3949 42.6525C43.4257 42.6951 41.4564 42.4393 39.5468 41.979C37.8078 41.5613 36.1028 40.9901 34.5172 40.2058C33.0338 39.4812 31.6613 38.5946 30.3485 37.6484C28.8652 36.5742 27.45 35.4319 25.89 34.4515C25.1227 33.9827 24.3384 33.5394 23.5286 33.1302C22.7443 32.7295 21.9003 32.3544 20.9967 32.2521C20.7694 32.2237 20.542 32.2152 20.3147 32.2265C20.0504 32.2265 19.7776 32.2521 19.5304 32.3118C19.5219 32.3033 19.5219 32.2947 19.5389 32.2862C19.6242 32.2578 19.7123 32.2322 19.8032 32.2095C19.5986 32.1157 19.4281 31.9793 19.2747 31.8259C18.8484 31.374 18.5927 30.8029 18.3796 30.2402C17.8851 28.9615 17.7658 27.5975 17.6123 26.2506C17.5668 25.8869 17.5242 25.5203 17.4844 25.1509C17.4674 24.9719 17.4418 24.8014 17.3992 24.6394C17.3907 24.7332 17.3651 24.8184 17.331 24.8951C17.2116 25.1935 16.9815 25.4237 16.7342 25.6283C16.4614 25.8414 16.146 26.0119 15.8477 26.1909C15.6601 26.2989 15.4726 26.4012 15.285 26.4978C15.2509 26.5092 15.2197 26.5205 15.1912 26.5319C14.9525 26.6257 14.7224 26.7536 14.4752 26.8303C14.4581 26.836 14.4382 26.8388 14.4155 26.8388C14.5689 26.7706 14.7167 26.6939 14.8588 26.6086C15.0975 26.4637 15.3276 26.3103 15.5578 26.1398C15.7169 26.0488 15.8704 25.9522 16.0182 25.8499C16.3506 25.6283 16.6831 25.3811 16.9303 25.0742C17.0411 24.9207 17.1264 24.7587 17.1605 24.5797C17.1946 24.4518 17.1605 24.324 17.1605 24.1961C16.2739 24.5627 15.464 25.0315 14.7139 25.5942C14.3729 25.8499 14.0574 26.1312 13.742 26.4126C13.5374 26.549 13.3413 26.7024 13.1708 26.8729C13.1282 26.9155 13.1623 26.9667 13.2135 26.9752Z" fill="#3CA9FF"/>
<g style="mix-blend-mode:screen">
<path d="M62.7505 37.3244C60.9177 37.8529 59.2468 38.731 57.5674 39.575C55.8368 40.436 54.0551 41.1776 52.2478 41.8767C50.4917 42.5672 48.6759 43.1725 46.7663 43.3685C42.9728 43.7436 39.1281 42.9338 35.6584 41.5272C33.1777 40.5212 31.217 38.7907 29.4182 36.9578C29.7251 37.1908 30.0348 37.421 30.3474 37.6483C31.6603 38.5946 33.0328 39.4812 34.5161 40.2058C36.1017 40.9901 37.8067 41.5613 39.5458 41.979C41.4553 42.4393 43.4246 42.6951 45.3938 42.6524C47.3887 42.6098 49.3323 42.2347 51.2249 41.6636C53.0151 41.1265 54.7456 40.4189 56.4421 39.6687C58.0021 38.9697 59.5281 38.1769 61.1223 37.529C61.7019 37.3244 62.2987 37.1539 62.9125 37.0346C63.6371 36.8982 64.3958 36.8044 65.1375 36.83C65.1375 36.83 65.1403 36.83 65.146 36.83C64.3361 36.9408 63.5348 37.0942 62.7505 37.3244Z" fill="#3CA9FF"/>
</g>
<path d="M69.3072 38.3389C69.1196 38.1684 68.915 37.9979 68.7275 37.8359C68.5144 37.6569 68.3268 37.4693 68.1308 37.2903C68.0796 37.2392 67.9858 37.2733 68.0285 37.3329C68.1222 37.512 68.2586 37.6654 68.395 37.8103C68.5229 37.9723 68.6678 38.1257 68.8213 38.2707C68.9236 38.3559 69.0287 38.4355 69.1367 38.5094C69.1822 38.5435 69.2248 38.5804 69.2646 38.6202C69.3072 38.6713 69.3669 38.7225 69.3924 38.7822C69.4095 38.8333 69.401 38.8845 69.3754 38.9356C69.364 38.9754 69.3527 39.0123 69.3413 39.0464C69.3356 39.0521 69.3328 39.0578 69.3328 39.0635C69.1736 39.0066 69.023 38.9356 68.881 38.8504C68.2586 38.4838 67.7642 37.9297 67.4402 37.3159C67.4118 37.259 67.3834 37.2051 67.355 37.1539C67.4346 37.1425 67.5113 37.1312 67.5852 37.1198C67.5909 37.1198 67.5965 37.1226 67.6022 37.1283C67.6079 37.1283 67.6136 37.1283 67.6193 37.1283C67.6306 37.134 67.6392 37.1369 67.6448 37.1369C67.6704 37.1369 67.6789 37.1369 67.7045 37.1283C67.6932 37.1283 67.6818 37.1312 67.6704 37.1369C67.6875 37.1312 67.7074 37.1283 67.7301 37.1283H67.7216C67.7216 37.1283 67.7244 37.1283 67.7301 37.1283C67.7415 37.1283 67.7528 37.1283 67.7642 37.1283C67.7812 37.134 67.7983 37.1369 67.8153 37.1369C67.804 37.1369 67.7954 37.134 67.7898 37.1283C67.8068 37.1397 67.8267 37.1482 67.8494 37.1539C67.8381 37.1482 67.8295 37.1454 67.8239 37.1454C67.8324 37.1454 67.8409 37.1454 67.8494 37.1454C67.8665 37.1567 67.8835 37.1596 67.9006 37.1539C67.9262 37.1539 67.9517 37.1454 67.9517 37.1198C67.9517 37.1084 67.9517 37.0999 67.9517 37.0942C67.9517 37.0772 67.9489 37.063 67.9432 37.0516C68.0057 37.0402 68.0654 37.0317 68.1222 37.026C68.4036 37.0005 68.6167 37.0772 68.8128 37.2647C69.0514 37.4864 69.239 37.7506 69.418 38.0149C69.5288 38.1684 69.6397 38.3133 69.7505 38.4667C69.7505 38.4724 69.7505 38.4809 69.7505 38.4923C69.6311 38.4923 69.5033 38.4412 69.401 38.39C69.3669 38.373 69.3356 38.3559 69.3072 38.3389Z" fill="#221F20"/>
<path d="M13.1717 26.8729C13.3422 26.7024 13.5383 26.549 13.7428 26.4126C14.0583 26.1313 14.3737 25.8499 14.7147 25.5942C15.4649 25.0316 16.2747 24.5627 17.1613 24.1961C17.1613 24.324 17.1954 24.4519 17.1613 24.5797C17.1272 24.7588 17.042 24.9207 16.9312 25.0742C16.6839 25.3811 16.3515 25.6283 16.019 25.8499C15.8712 25.9522 15.7178 26.0489 15.5586 26.1398C15.3285 26.3103 15.0983 26.4637 14.8596 26.6087C14.7175 26.6939 14.5698 26.7706 14.4163 26.8388C14.439 26.8388 14.4589 26.836 14.476 26.8303C14.7232 26.7536 14.9534 26.6257 15.1921 26.5319C15.2205 26.5206 15.2518 26.5092 15.2859 26.4978C15.4734 26.4012 15.6609 26.2989 15.8485 26.1909C16.1469 26.0119 16.4623 25.8414 16.7351 25.6283C16.9823 25.4237 17.2125 25.1935 17.3318 24.8952C17.3659 24.8184 17.3915 24.7332 17.4 24.6394C17.4426 24.8014 17.4682 24.9719 17.4853 25.1509C17.5251 25.5203 17.5677 25.8869 17.6131 26.2506C17.7666 27.5975 17.8859 28.9615 18.3804 30.2403C18.5935 30.8029 18.8493 31.3741 19.2755 31.8259C19.4289 31.9793 19.5994 32.1157 19.804 32.2095C19.7131 32.2322 19.625 32.2578 19.5398 32.2862C19.5227 32.2948 19.5227 32.3033 19.5312 32.3118C19.7785 32.2521 20.0513 32.2266 20.3155 32.2266C20.5429 32.2152 20.7702 32.2237 20.9975 32.2521C21.5346 32.3118 22.0461 32.4738 22.5405 32.6784C22.1058 32.6358 21.6625 32.6358 21.2277 32.6699C20.0768 32.7722 18.9686 33.1217 17.9882 33.6843C17.1443 34.1788 16.4197 34.8352 15.9082 35.6365C15.499 36.2844 15.2347 37.009 15.0642 37.7422C15.0898 37.2733 15.1495 36.8129 15.2773 36.3611C15.4478 35.7218 15.7377 35.125 16.1128 34.5794C16.3174 34.1816 16.5362 33.7923 16.7692 33.4115C16.7266 33.4115 16.6925 33.4115 16.6584 33.4456C16.5902 33.5195 16.522 33.5934 16.4538 33.6673C16.5305 33.1046 16.377 32.4908 16.2151 31.9879C15.9849 31.2206 15.6439 30.4619 15.2688 29.7458C15.0472 29.3366 14.7999 28.936 14.5186 28.5609C14.2373 28.1772 13.9048 27.8618 13.5809 27.5208C13.4871 27.4185 13.3166 27.2651 13.2569 27.1116C13.4956 27.1202 13.7428 27.0775 13.9815 27.0179C13.7684 27.0008 13.5638 27.0008 13.3507 26.9838C13.345 26.9838 13.3422 26.9838 13.3422 26.9838C13.3024 26.9894 13.2655 26.9923 13.2314 26.9923C13.2314 26.9866 13.2314 26.9809 13.2314 26.9752C13.2257 26.9752 13.22 26.9752 13.2143 26.9752C13.1632 26.9667 13.1291 26.9156 13.1717 26.8729Z" fill="#3CA9FF"/>
<path d="M16.6062 33.94C16.5948 33.9571 16.5806 33.9741 16.5636 33.9912C16.6488 33.8491 16.7341 33.7099 16.8193 33.5735C16.7511 33.6928 16.6829 33.8207 16.6062 33.94Z" fill="#1F6EAC"/>
<g style="mix-blend-mode:multiply">
<path d="M34.0052 43.5646C36.1535 44.5024 38.37 45.2611 40.6887 45.7129C43.0075 46.1647 45.3774 46.3523 47.7388 46.1306C50.0831 45.909 52.3849 45.3378 54.5417 44.4853C55.5987 44.0676 56.6388 43.5902 57.6106 43.019C58.5398 42.482 59.4179 41.8767 60.2789 41.2629C61.9839 40.0524 63.6803 38.7395 65.6922 37.9893C65.9366 37.8984 66.1838 37.816 66.4339 37.7421C66.468 37.7336 66.5106 37.7762 66.468 37.7933C64.4305 38.5435 62.6744 39.8222 60.9694 41.0668C60.0914 41.6977 59.2218 42.3285 58.3097 42.9082C57.3719 43.4964 56.3745 43.9994 55.3515 44.4427C53.2118 45.3634 50.9271 45.9942 48.5913 46.2926C46.2299 46.591 43.86 46.4801 41.5156 46.0709C39.1969 45.6617 36.9292 44.9542 34.8066 44.0079C34.5281 43.8829 34.2553 43.755 33.9882 43.6243C33.937 43.5987 33.9455 43.539 34.0052 43.5646Z" fill="#3CA9FF"/>
</g>
<g style="mix-blend-mode:multiply">
<path d="M19.598 32.6698C20.442 32.7551 21.2604 32.9512 22.0276 33.2836C22.7864 33.6076 23.4939 34.0253 24.1674 34.4771C24.9176 34.9801 25.6422 35.5257 26.3327 36.0883C27.0744 36.7021 27.7223 37.3841 28.3701 38.0746C28.7197 38.4497 29.0777 38.8163 29.4528 39.1658C29.8023 39.4812 30.1604 39.7966 30.4332 40.1803C30.4587 40.2144 30.3991 40.2144 30.382 40.1973C30.1007 39.8648 29.7853 39.5665 29.4613 39.2766C29.1374 38.9782 28.8305 38.6884 28.5236 38.3815C27.8587 37.708 27.1681 37.0601 26.435 36.4549C25.7615 35.9008 25.054 35.3722 24.3294 34.8693C23.6729 34.4004 22.991 33.9571 22.2663 33.599C21.4309 33.1813 20.5358 32.8744 19.6066 32.721C19.5639 32.7125 19.5554 32.6613 19.598 32.6698Z" fill="#3CA9FF"/>
</g>
<g style="mix-blend-mode:multiply">
<path d="M28.5428 38.1513C29.2333 38.8419 29.8727 39.575 30.4438 40.3593C30.0176 40.1206 29.6084 39.8563 29.2248 39.5665C28.3382 38.893 27.5454 38.1172 26.8549 37.2648C26.4542 36.7788 26.0876 36.2588 25.7722 35.7047C25.8972 35.807 26.0251 35.9093 26.1558 36.0116C26.9827 36.6936 27.7926 37.4012 28.5428 38.1513Z" fill="#3CA9FF"/>
</g>
<g style="mix-blend-mode:multiply">
<path d="M42.4452 45.9772C43.3062 46.0624 44.1672 46.1221 45.0368 46.1477C46.2473 46.1733 47.4749 46.0624 48.6684 45.8919C50.8252 45.5936 52.9479 45.048 55.0194 44.4257C56.3663 44.025 57.8326 43.4964 58.813 42.5076C58.0372 43.6584 56.8608 44.528 55.5735 45.1588C53.9112 45.9687 52.0698 46.4205 50.2284 46.7018C48.4894 46.9575 46.7332 47.0598 44.9771 47.0257C43.6898 47.0002 42.3941 46.8467 41.1324 46.6506C39.7854 46.429 38.4556 46.1221 37.1768 45.6618C36.5716 45.4486 35.9578 45.2099 35.3866 44.903C34.8751 44.6302 34.3977 44.2978 33.9544 43.9312C33.801 43.8005 33.6475 43.6669 33.4941 43.5305C34.5597 44.1102 35.7106 44.545 36.8785 44.8945C38.6772 45.4316 40.5612 45.7811 42.4452 45.9772Z" fill="#3CA9FF"/>
</g>
<g style="mix-blend-mode:multiply">
<path d="M13.1708 26.8729C13.3413 26.7024 13.5374 26.549 13.742 26.4126C14.0574 26.1312 14.3729 25.8499 14.7139 25.5942C15.464 25.0315 16.2739 24.5627 17.1605 24.1961C17.1605 24.324 17.1946 24.4518 17.1605 24.5797C17.1264 24.7587 17.0411 24.9207 16.9303 25.0742C16.6831 25.3811 16.3506 25.6283 16.0182 25.8499C15.8704 25.9522 15.7169 26.0488 15.5578 26.1398C15.3276 26.3103 15.0975 26.4637 14.8588 26.6086C14.7167 26.6939 14.5689 26.7706 14.4155 26.8388C14.4382 26.8388 14.4581 26.836 14.4752 26.8303C14.7224 26.7536 14.9525 26.6257 15.1912 26.5319C15.2197 26.5205 15.2509 26.5092 15.285 26.4978C15.4726 26.4012 15.6601 26.2989 15.8477 26.1909C15.9926 26.1057 16.146 26.0204 16.291 25.9266C16.2796 25.9437 16.2682 25.9579 16.2569 25.9693C16.0352 26.1824 15.7624 26.3444 15.5408 26.5575C15.3873 26.6939 15.268 26.8559 15.2339 27.0519C15.1912 27.3162 15.2765 27.5805 15.3703 27.8192C16.0182 29.5327 16.8365 31.178 17.4077 32.9085C17.4248 32.9597 17.4759 32.9597 17.51 32.9341C17.8084 32.721 18.1409 32.542 18.4904 32.4056C18.7802 32.2947 19.0786 32.2265 19.377 32.1839C19.286 32.2351 19.1951 32.2891 19.1042 32.3459C18.5927 32.6784 18.2005 33.1387 17.9277 33.6502C17.6294 34.2299 17.4759 34.8693 17.4162 35.5001C17.3651 36.1991 17.3992 36.8982 17.5356 37.5887C17.8169 38.9868 18.4989 40.2826 19.3429 41.459C20.1783 42.6269 23.2814 45.8663 23.8866 46.3864C25.4382 47.7333 27.3051 48.7478 29.1891 49.6343C33.1873 51.5354 37.6032 52.7715 42.0958 53.0869C46.452 53.3853 50.9957 52.8227 54.9001 50.9216C58.8301 49.012 62.1378 45.9857 64.5674 42.5587C65.0959 41.817 65.5818 41.0413 65.9569 40.2229C66.2638 39.5409 66.5281 38.7481 66.315 38.0064C66.153 37.4949 65.7523 37.1028 65.2664 36.8385C65.6017 36.8612 65.9342 36.9152 66.2638 37.0005C66.5878 37.0772 66.9032 37.1624 67.2442 37.1539C67.355 37.1539 67.4743 37.1369 67.5852 37.1198C67.5909 37.1198 67.5965 37.1227 67.6022 37.1283C67.6079 37.1283 67.6136 37.1283 67.6193 37.1283C67.6306 37.134 67.6392 37.1369 67.6448 37.1369C67.6704 37.1369 67.6789 37.1369 67.7045 37.1283C67.6932 37.1283 67.6818 37.1312 67.6704 37.1369C67.6875 37.1312 67.7074 37.1283 67.7301 37.1283H67.7216C67.7216 37.1283 67.7244 37.1283 67.7301 37.1283C67.7415 37.1283 67.7528 37.1283 67.7642 37.1283C67.7812 37.134 67.7983 37.1369 67.8153 37.1369C67.804 37.1369 67.7954 37.134 67.7898 37.1283C67.8068 37.1397 67.8267 37.1482 67.8494 37.1539C67.8381 37.1482 67.8295 37.1454 67.8239 37.1454C67.8324 37.1454 67.8409 37.1454 67.8494 37.1454C67.8665 37.1568 67.8835 37.1596 67.9006 37.1539C67.9262 37.1539 67.9517 37.1454 67.9517 37.1198C67.9517 37.1085 67.9517 37.0999 67.9517 37.0942C67.9517 37.0772 67.9489 37.063 67.9432 37.0516C68.0057 37.0403 68.0654 37.0317 68.1222 37.026C68.4036 37.0005 68.6167 37.0772 68.8128 37.2647C69.0514 37.4864 69.239 37.7507 69.418 38.0149C69.5288 38.1684 69.6397 38.3133 69.7505 38.4668C69.7505 38.4724 69.7505 38.481 69.7505 38.4923C69.6311 38.4923 69.5033 38.4412 69.401 38.39C69.3669 38.373 69.3356 38.3559 69.3072 38.3389C69.1196 38.1684 68.915 37.9979 68.7275 37.8359C68.5144 37.6569 68.3268 37.4693 68.1308 37.2903C68.0796 37.2392 67.9858 37.2733 68.0285 37.3329C68.1222 37.512 68.2586 37.6654 68.395 37.8103C68.5229 37.9723 68.6678 38.1258 68.8213 38.2707C68.9236 38.3559 69.0287 38.4355 69.1367 38.5094C69.1822 38.5435 69.2248 38.5804 69.2646 38.6202C69.3072 38.6713 69.3669 38.7225 69.3924 38.7822C69.4095 38.8333 69.401 38.8845 69.3754 38.9356C69.364 38.9754 69.3527 39.0123 69.3413 39.0464C69.3157 39.1061 69.3072 39.1573 69.2901 39.2169C69.2816 39.234 69.2987 39.2681 69.3157 39.2851C69.31 39.2908 69.3072 39.2965 69.3072 39.3022C68.9491 39.8648 68.7531 40.5383 68.5059 41.1436C68.2331 41.817 67.9517 42.4905 67.6363 43.1554C67.0225 44.4427 66.2979 45.6873 65.5051 46.8808C64.1837 48.8586 62.5043 50.6147 60.518 52.0298C58.5658 53.4279 56.3579 54.485 54.0221 55.2096C51.3453 56.0365 48.5065 56.4628 45.7103 56.6674C42.7437 56.8805 39.7514 56.8123 36.8103 56.4543C34.0483 56.1047 31.2777 55.5336 28.7117 54.485C26.2736 53.4876 24.023 52.0895 22.122 50.3504C20.4937 48.8671 19.0786 47.1195 17.8681 45.3293C16.6234 43.505 15.5322 41.4931 15.1742 39.3448C15.0037 38.3559 15.0122 37.3329 15.2765 36.3611C15.447 35.7217 15.7368 35.125 16.1119 34.5794C16.3165 34.1816 16.5353 33.7923 16.7683 33.4115C16.7257 33.4115 16.6916 33.4115 16.6575 33.4456C16.5893 33.5195 16.5211 33.5934 16.4529 33.6672C16.5296 33.1046 16.3762 32.4908 16.2142 31.9878C15.9841 31.2206 15.6431 30.4619 15.268 29.7458C15.0463 29.3366 14.7991 28.9359 14.5178 28.5608C14.2365 28.1772 13.904 27.8618 13.58 27.5208C13.4863 27.4185 13.3158 27.2651 13.2561 27.1116C13.4948 27.1201 13.742 27.0775 13.9807 27.0178C13.7676 27.0008 13.563 27.0008 13.3499 26.9837C13.3442 26.9837 13.3413 26.9837 13.3413 26.9837C13.3016 26.9894 13.2646 26.9923 13.2305 26.9923C13.2305 26.9866 13.2305 26.9809 13.2305 26.9752C13.2248 26.9752 13.2192 26.9752 13.2135 26.9752C13.1623 26.9667 13.1282 26.9155 13.1708 26.8729Z" fill="#3CA9FF"/>
</g>
<g style="mix-blend-mode:multiply">
<path d="M16.1119 34.5794C15.9926 35.6194 16.0693 36.6765 16.2142 37.708C16.3677 38.8248 16.7001 39.9075 17.1605 40.9475C18.1153 43.0702 19.573 44.9883 21.2354 46.6847C22.8807 48.3556 24.7562 49.8645 26.7936 51.1092C28.9504 52.4135 31.3203 53.4023 33.7925 54.0673C34.7644 54.3316 35.7618 54.5447 36.7677 54.7067C39.9134 55.3375 43.187 55.5506 46.3923 55.2437C49.3419 54.9624 52.2319 54.1866 54.9087 53.0102C57.5088 51.8679 59.9042 50.3249 62.0014 48.5005C63.084 47.5628 64.09 46.5483 65.0107 45.4742C65.9825 44.3233 66.8776 43.0872 67.4147 41.7062C67.6619 41.1009 67.8409 40.4531 67.8665 39.7966C67.8835 39.3107 67.7727 38.8077 67.5937 38.3389C67.4317 37.9297 67.2015 37.4949 66.8861 37.1283C66.9998 37.1511 67.1191 37.1596 67.2442 37.1539C67.355 37.1539 67.4743 37.1369 67.5852 37.1198C67.5909 37.1198 67.5965 37.1227 67.6022 37.1283C67.6079 37.1283 67.6136 37.1283 67.6193 37.1283C67.6306 37.134 67.6392 37.1369 67.6448 37.1369C67.6704 37.1369 67.6789 37.1369 67.7045 37.1283C67.6931 37.1283 67.6818 37.1312 67.6704 37.1369C67.6875 37.1312 67.7074 37.1283 67.7301 37.1283H67.7216C67.7216 37.1283 67.7244 37.1283 67.7301 37.1283C67.7415 37.1283 67.7528 37.1283 67.7642 37.1283C67.7812 37.134 67.7983 37.1369 67.8153 37.1369C67.804 37.1369 67.7954 37.134 67.7898 37.1283C67.8068 37.1397 67.8267 37.1482 67.8494 37.1539C67.8381 37.1482 67.8295 37.1454 67.8239 37.1454C67.8324 37.1454 67.8409 37.1454 67.8494 37.1454C67.8665 37.1568 67.8835 37.1596 67.9006 37.1539C67.9262 37.1539 67.9517 37.1454 67.9517 37.1198C67.9517 37.1085 67.9517 37.0999 67.9517 37.0942C67.9517 37.0772 67.9489 37.063 67.9432 37.0516C68.0057 37.0403 68.0654 37.0317 68.1222 37.026C68.4036 37.0005 68.6167 37.0772 68.8128 37.2647C69.0514 37.4864 69.239 37.7507 69.418 38.0149C69.5288 38.1684 69.6397 38.3133 69.7505 38.4668C69.7505 38.4724 69.7505 38.481 69.7505 38.4923C69.6311 38.4923 69.5033 38.4412 69.401 38.39C69.3669 38.373 69.3356 38.3559 69.3072 38.3389C69.1196 38.1684 68.915 37.9979 68.7275 37.8359C68.5144 37.6569 68.3268 37.4693 68.1308 37.2903C68.0796 37.2392 67.9858 37.2733 68.0285 37.3329C68.1222 37.512 68.2586 37.6654 68.395 37.8103C68.5229 37.9723 68.6678 38.1258 68.8213 38.2707C68.9236 38.3559 69.0287 38.4355 69.1367 38.5094C69.1822 38.5435 69.2248 38.5804 69.2646 38.6202C69.3072 38.6714 69.3669 38.7225 69.3924 38.7822C69.4095 38.8333 69.401 38.8845 69.3754 38.9356C69.364 38.9754 69.3527 39.0123 69.3413 39.0464C69.3157 39.1061 69.3072 39.1573 69.2901 39.2169C69.2816 39.234 69.2987 39.2681 69.3157 39.2851C69.31 39.2908 69.3072 39.2965 69.3072 39.3022C68.9491 39.8648 68.7531 40.5383 68.5059 41.1436C68.2331 41.817 67.9517 42.4905 67.6363 43.1554C67.0225 44.4427 66.2979 45.6873 65.5051 46.8808C64.1837 48.8586 62.5043 50.6147 60.518 52.0298C58.5658 53.4279 56.3579 54.485 54.0221 55.2096C51.3453 56.0365 48.5065 56.4628 45.7103 56.6674C42.7437 56.8805 39.7514 56.8123 36.8103 56.4543C34.0483 56.1047 31.2777 55.5336 28.7117 54.485C26.2736 53.4876 24.023 52.0895 22.122 50.3504C20.4937 48.8671 19.0786 47.1195 17.8681 45.3293C16.6234 43.505 15.5322 41.4931 15.1742 39.3448C15.0037 38.3559 15.0122 37.3329 15.2765 36.3611C15.447 35.7217 15.7368 35.125 16.1119 34.5794Z" fill="#3CA9FF"/>
</g>
<g style="mix-blend-mode:screen">
<path d="M16.929 25.0742C16.767 25.2873 16.5539 25.4663 16.3408 25.6283C16.2555 25.6539 16.1873 25.6965 16.1191 25.7391C16.0168 25.7903 15.9231 25.8499 15.8208 25.9011C15.9231 25.7732 16.0168 25.6454 16.1106 25.5175C16.2214 25.3555 16.3237 25.2021 16.3919 25.023C16.4516 24.9037 16.4942 24.7588 16.4516 24.6309C16.4402 24.6025 16.4232 24.5741 16.4004 24.5456C16.6448 24.4206 16.8977 24.3041 17.1592 24.1961C17.1592 24.324 17.1933 24.4519 17.1592 24.5797C17.1251 24.7588 17.0398 24.9207 16.929 25.0742Z" fill="#3CA9FF"/>
</g>
<g style="mix-blend-mode:screen">
<path d="M18.5825 30.9222C18.4205 30.7262 18.2585 30.5216 18.1392 30.3084C17.9261 29.9333 17.7982 29.5156 17.6788 29.1064C17.5595 28.6972 17.4657 28.2795 17.3549 27.8788C17.2782 27.606 17.2526 27.3247 17.21 27.0519C17.1588 26.745 17.1162 26.4296 17.0309 26.1312C16.9713 25.9522 16.886 25.7391 16.707 25.6453C16.7127 25.6396 16.7212 25.634 16.7326 25.6283C16.9798 25.4237 17.21 25.1935 17.3293 24.8951C17.3634 24.8184 17.389 24.7332 17.3975 24.6394C17.4401 24.8014 17.4657 24.9719 17.4828 25.1509C17.5225 25.5203 17.5652 25.8869 17.6106 26.2506C17.7641 27.5975 17.8834 28.9615 18.3779 30.2402C18.4887 30.5386 18.608 30.837 18.77 31.1098C18.7075 31.0473 18.645 30.9847 18.5825 30.9222Z" fill="#3CA9FF"/>
</g>
<g style="mix-blend-mode:screen">
<path d="M21.9776 36.9067C22.0373 36.5913 22.2334 36.3185 22.5232 36.1224C23.3928 35.5598 24.484 35.9519 25.2768 36.4464C26.2742 37.0772 27.1096 37.9126 27.6978 38.893C28.0047 39.396 28.2349 40.0609 27.8513 40.5212C27.1608 41.3567 25.703 40.8793 24.8761 40.5212C23.7338 40.0268 22.8131 39.1658 22.2504 38.1258C22.1055 37.853 21.9862 37.5716 21.9521 37.2733C21.9407 37.1482 21.9492 37.026 21.9776 36.9067Z" fill="#3CA9FF"/>
</g>
<g style="mix-blend-mode:screen">
<path d="M28.4305 42.2433C28.4646 42.0898 28.5669 41.9534 28.7118 41.8596C29.1466 41.5783 29.6922 41.7744 30.0844 42.0216C30.5873 42.3285 31.005 42.7548 31.2949 43.2407C31.4483 43.4964 31.5592 43.8289 31.3716 44.0591C31.0306 44.4768 30.2975 44.2296 29.8883 44.0591C29.3171 43.8118 28.8482 43.3771 28.5755 42.8571C28.4987 42.7207 28.4391 42.5843 28.422 42.4308C28.4163 42.3683 28.4192 42.3058 28.4305 42.2433Z" fill="#3CA9FF"/>
</g>
</svg>
